<svg xmlns="http://www.w3.org/2000/svg" version="1.1" width="30" height="30">
  <g transform="translate(5, 5)">
    <path d="M10,18.1973068 C9.1174799,18.7078171 8.09286143,19 7,19 C3.6862915,19 1,16.3137085 1,13 C1,11.9071386 1.29218286,10.8825201 1.80269317,10 C1.29218286,9.1174799 1,8.09286143 1,7 C1,3.6862915 3.6862915,1 7,1 C8.09286143,1 9.1174799,1.29218286 10,1.80269317 C10.8825201,1.29218286 11.9071386,1 13,1 C16.3137085,1 19,3.6862915 19,7 C19,8.09286143 18.7078171,9.1174799 18.1973068,10 C18.7078171,10.8825201 19,11.9071386 19,13 C19,16.3137085 16.3137085,19 13,19 C11.9071386,19 10.8825201,18.7078171 10,18.1973068 Z M10,13.6118382 C10.4525397,14.0168722 11.0501399,14.2631579 11.7052632,14.2631579 C13.1179494,14.2631579 14.2631579,13.1179494 14.2631579,11.7052632 C14.2631579,11.0501399 14.0168722,10.4525397 13.6118382,10 C14.0168722,9.54746025 14.2631579,8.9498601 14.2631579,8.29473684 C14.2631579,6.88205059 13.1179494,5.73684211 11.7052632,5.73684211 C11.0501399,5.73684211 10.4525397,5.98312778 10,6.38816182 C9.54746025,5.98312778 8.9498601,5.73684211 8.29473684,5.73684211 C6.88205059,5.73684211 5.73684211,6.88205059 5.73684211,8.29473684 C5.73684211,8.9498601 5.98312778,9.54746025 6.38816182,10 C5.98312778,10.4525397 5.73684211,11.0501399 5.73684211,11.7052632 C5.73684211,13.1179494 6.88205059,14.2631579 8.29473684,14.2631579 C8.9498601,14.2631579 9.54746025,14.0168722 10,13.6118382 Z" id="ENCRYPTOR" stroke="#f9502a" stroke-width="2" class="st1"></path>
  </g>
</svg>

